# xmcd
#
# Track frame offsets: 
#        150
#        19566
#        40080
#        56767
#        75429
#        97926
#        113898
#        131593
#        150496
#        172895
#        192592
#        206378
#
# Disc length: 3047 seconds
#
# Revision: 0
# Processed by: cddbd v1.5.2PL0 Copyright (c) Steve Scherf et al.
# Submitted via: ExactAudioCopy v1.0b3
#
DISCID=8c0be50c
DTITLE=Михаил Нестеров - Вернись Домой (2006)
DYEAR=2006
DGENRE=Russian CCM
TTITLE0=Без Тебя
TTITLE1=Вернись домой
TTITLE2=Когда в твои слова вникаю
TTITLE3=Воскрессение 
TTITLE4=Если б не Божий Сын
TTITLE5=С кем сравнить Тебя
TTITLE6=Душа поет
TTITLE7=Прихожу к Тебе я с покаянием
TTITLE8=Я знаю путь
TTITLE9=В дикой пустыне
TTITLE10=Ты всегда со мной
TTITLE11=В бушующем море
EXTD=
EXTT0=
EXTT1=
EXTT2=
EXTT3=
EXTT4=
EXTT5=
EXTT6=
EXTT7=
EXTT8=
EXTT9=
EXTT10=
EXTT11=
PLAYORDER=
